<svg width="16" height="16" viewBox="0 0 16 16" fill="none" xmlns="http://www.w3.org/2000/svg">
<path fill-rule="evenodd" clip-rule="evenodd" d="M5.15525 7.75037V7.06531C4.77694 7.24553 4.41617 7.29702 4.0216 7.35334C3.90605 7.36983 3.79093 7.38753 3.67539 7.40483C3.00992 7.50539 2.3008 7.6124 2.3008 8.38716C2.3008 8.66473 2.3988 8.88598 2.58025 9.03642C2.76342 9.18848 3.03303 9.27175 3.37453 9.27175C3.91333 9.27175 4.36824 9.12975 4.68279 8.85983C4.9815 8.60358 5.15525 8.22988 5.15525 7.75037ZM13.5667 7.75037V7.06531C13.1884 7.24553 12.8276 7.29702 12.433 7.35334C12.3175 7.36983 12.2024 7.38753 12.0868 7.40483C11.4213 7.50539 10.7122 7.6124 10.7122 8.38716C10.7122 8.66473 10.8102 8.88598 10.9917 9.03642C11.1748 9.18848 11.4445 9.27175 11.786 9.27175C12.3248 9.27175 12.7797 9.12975 13.0942 8.85983C13.3929 8.60358 13.5667 8.22988 13.5667 7.75037ZM15.7347 8.81518C15.7377 9.35301 15.7664 9.89808 15.9927 10.3921C15.9975 10.4013 16 10.4118 16 10.4226C16 10.4617 15.9662 10.493 15.9251 10.493H13.8042C13.8042 10.493 13.7391 10.46 13.734 10.4468C13.6809 10.3116 13.6506 10.2151 13.6296 10.1101C13.6155 10.0405 13.606 9.96888 13.5966 9.88159C13.2992 10.1342 12.9564 10.3273 12.5875 10.4621C12.1493 10.6226 11.6751 10.7006 11.1975 10.7006C10.339 10.7006 9.64448 10.4902 9.16303 10.1065C8.67902 9.72068 8.4124 9.16274 8.4124 8.47003C8.4124 7.50338 8.8823 6.96193 9.54691 6.63851C10.1983 6.32192 11.0328 6.22055 11.7898 6.12964C12.2131 6.07292 12.8169 6.02183 13.2076 5.86133C13.4704 5.75312 13.5821 5.59945 13.5821 5.34079C13.5821 5.03909 13.4815 4.81905 13.2757 4.67585C12.8447 4.37616 11.7051 4.37415 11.278 4.68228C11.0576 4.84118 10.9305 5.09943 10.8599 5.48682C10.856 5.52222 10.8239 5.54997 10.7854 5.54997H8.82623C8.82623 5.54756 8.74835 5.51819 8.75134 5.47475C8.81168 4.65815 9.15276 4.03906 9.76046 3.62311C10.3652 3.20958 11.2313 3 12.3462 3C13.122 3 13.963 3.08488 14.6139 3.42439C15.2738 3.76833 15.7351 4.36892 15.7351 5.39631V7.48689C15.7351 8.01265 15.733 8.41492 15.7351 8.81437L15.7347 8.81518ZM7.32326 8.81518C7.32626 9.35301 7.35493 9.89808 7.58132 10.3921C7.58602 10.4013 7.58859 10.4118 7.58859 10.4226C7.58859 10.4617 7.55478 10.493 7.5137 10.493H5.39276C5.39276 10.493 5.32771 10.46 5.32258 10.4468C5.26951 10.3116 5.23913 10.2151 5.21816 10.1101C5.20404 10.0405 5.19462 9.96888 5.18521 9.88159C4.88778 10.1342 4.54499 10.3273 4.17609 10.4621C3.73787 10.6226 3.26369 10.7006 2.7861 10.7006C1.92762 10.7006 1.23305 10.4902 0.751607 10.1065C0.267592 9.72068 0.000976562 9.16274 0.000976562 8.47003C0.000976562 7.50338 0.47087 6.96193 1.13548 6.63851C1.78683 6.32192 2.62134 6.22055 3.37839 6.12964C3.80163 6.07292 4.40547 6.02183 4.7962 5.86133C5.05896 5.75312 5.17065 5.59945 5.17065 5.34079C5.17065 5.03909 5.07009 4.81905 4.86424 4.67585C4.43329 4.37616 3.29365 4.37415 2.86655 4.68228C2.64616 4.84118 2.51905 5.09943 2.44844 5.48682C2.44459 5.52222 2.41249 5.54997 2.37398 5.54997H0.414808C0.414808 5.54756 0.33692 5.51819 0.339916 5.47475C0.400257 4.65815 0.741336 4.03906 1.34903 3.62311C1.95373 3.20958 2.81991 3 3.93473 3C4.71061 3 5.55153 3.08488 6.20245 3.42439C6.86235 3.76833 7.32369 4.36892 7.32369 5.39631V7.48689C7.32369 8.01265 7.32155 8.41492 7.32369 8.81437L7.32326 8.81518Z" fill="#D7262E"/>
<path d="M15.7152 11.7222H0.175781V13.0002H15.7152V11.7222Z" fill="#D7262E"/>
</svg>
